<svg xmlns="http://www.w3.org/2000/svg" width="512" height="512" fill="none" viewBox="0 0 512 512"><rect width="512" height="512" fill="url(#a)" paint-order="stroke" rx="120"/><rect width="512" height="512" fill="url(#b)" rx="120" style="mix-blend-mode:overlay"/><defs><radialGradient id="a" cx="50%" cy="50%" r="100%" fx="50%" fy="0%" gradientUnits="objectBoundingBox"><stop stop-color="#474747"/><stop offset=".9"/></radialGradient><radialGradient id="b" cx="0" cy="0" r="1" gradientTransform="matrix(0 512 -512 0 256 0)" gradientUnits="userSpaceOnUse"><stop stop-color="#fff"/><stop offset="1" stop-color="#fff" stop-opacity="0"/></radialGradient></defs><svg xmlns="http://www.w3.org/2000/svg" width="360" height="360" x="76" y="76" stroke="currentColor" stroke-linecap="round" stroke-linejoin="round" stroke-width="2" alignment-baseline="middle" style="color:#fff" viewBox="0 0 24 24"><path stroke="none" d="M0 0h24v24H0z"/><path d="M5 4h4l3 3h7a2 2 0 0 1 2 2v8a2 2 0 0 1-2 2H5a2 2 0 0 1-2-2V6a2 2 0 0 1 2-2"/></svg></svg>