<svg width="512" height="512" viewBox="0 0 512 512" fill="none" xmlns="http://www.w3.org/2000/svg" xmlns:xlink="http://www.w3.org/1999/xlink" class=""><rect id="r2s" width="512" height="512" x="0" y="0" rx="120" fill="url(#r2t)" stroke="#FFFFFF" stroke-width="0" stroke-opacity="100%" paint-order="stroke"></rect><rect width="512" height="512" x="0" y="0" fill="url(#r2u)" rx="120" style="mix-blend-mode: overlay;"></rect><clipPath id="clip"><use xlink:href="#r2s"></use></clipPath><defs><radialGradient id="r2t" cx="50%" cy="50%" r="100%" fx="50%" fy="0%" gradientUnits="objectBoundingBox"><stop stop-color="#474747"></stop><stop offset="0.9" stop-color="#000000"></stop></radialGradient><radialGradient id="r2u" cx="0" cy="0" r="1" gradientUnits="userSpaceOnUse" gradientTransform="translate(256) rotate(90) scale(512)"><stop stop-color="white"></stop><stop offset="1" stop-color="white" stop-opacity="0"></stop></radialGradient></defs><svg xmlns="http://www.w3.org/2000/svg" width="360" height="360" viewBox="0 0 24 24" fill="none" stroke="currentColor" stroke-width="2" stroke-linecap="round" stroke-linejoin="round" class="icon icon-tabler icons-tabler-outline icon-tabler-folder" x="76" y="76" alignment-baseline="middle" style="color: rgb(255, 255, 255);"><path stroke="none" d="M0 0h24v24H0z" fill="none"></path><path d="M5 4h4l3 3h7a2 2 0 0 1 2 2v8a2 2 0 0 1 -2 2h-14a2 2 0 0 1 -2 -2v-11a2 2 0 0 1 2 -2"></path></svg></svg>