<svg width="512" height="512" viewBox="0 0 512 512" fill="none" xmlns="http://www.w3.org/2000/svg">
<path d="M83 152.8C83 131.518 83 120.877 87.1418 112.748C90.7849 105.598 96.5982 99.7849 103.748 96.1418C111.877 92 122.518 92 143.8 92H174.2C195.482 92 206.123 92 214.252 96.1418C221.402 99.7849 227.215 105.598 230.858 112.748C235 120.877 235 131.518 235 152.8V359.2C235 380.482 235 391.123 230.858 399.252C227.215 406.402 221.402 412.215 214.252 415.858C206.123 420 195.482 420 174.2 420H143.8C122.518 420 111.877 420 103.748 415.858C96.5982 412.215 90.7849 406.402 87.1418 399.252C83 391.123 83 380.482 83 359.2V152.8Z" fill="#3F3F46"/>
<path d="M278 152.8C278 131.518 278 120.877 282.142 112.748C285.785 105.598 291.598 99.7849 298.748 96.1418C306.877 92 317.518 92 338.8 92H369.2C390.482 92 401.123 92 409.252 96.1418C416.402 99.7849 422.215 105.598 425.858 112.748C430 120.877 430 131.518 430 152.8V183.2C430 204.482 430 215.123 425.858 223.252C422.215 230.402 416.402 236.215 409.252 239.858C401.123 244 390.482 244 369.2 244H338.8C317.518 244 306.877 244 298.748 239.858C291.598 236.215 285.785 230.402 282.142 223.252C278 215.123 278 204.482 278 183.2V152.8Z" fill="#27272A"/>
<path d="M278 328.8C278 307.518 278 296.877 282.142 288.748C285.785 281.598 291.598 275.785 298.748 272.142C306.877 268 317.518 268 338.8 268H369.2C390.482 268 401.123 268 409.252 272.142C416.402 275.785 422.215 281.598 425.858 288.748C430 296.877 430 307.518 430 328.8V359.2C430 380.482 430 391.123 425.858 399.252C422.215 406.402 416.402 412.215 409.252 415.858C401.123 420 390.482 420 369.2 420H338.8C317.518 420 306.877 420 298.748 415.858C291.598 412.215 285.785 406.402 282.142 399.252C278 391.123 278 380.482 278 359.2V328.8Z" fill="white"/>
</svg>
